<svg width="16" height="16" 
  xmlns="http://www.w3.org/2000/svg">
  <path fill="#f94444" d="M8.673 6.788c.194-2.327.34-3.394.63-4.364.194-.582.291-1.115.291-1.503C9.594.388 8.964 0 7.946 0c-.97 0-1.6.388-1.6.97 0 .29.097.775.242 1.357.194.68.485 2.86.63 4.46-1.066-.775-2.472-1.939-3.296-2.811-.728-.728-1.164-1.018-1.552-1.018-.727 0-1.6 1.212-1.6 2.133 0 .388.29.727.824.824 1.358.388 3.055.97 3.83 1.358 1.067.533 1.067.533 1.407.727-1.455.776-3.152 1.6-4.897 2.279-.728.34-.97.533-.97 1.018 0 .824.97 1.988 1.648 1.988.34 0 .68-.243 1.213-.873.97-1.018 2.472-2.57 3.393-3.394-.193 2.327-.29 2.812-.581 4.412-.146.68-.291 1.455-.291 1.6 0 .63.582.97 1.551.97 1.067 0 1.746-.388 1.746-.97 0-.388-.097-.97-.291-1.697-.194-.678-.388-1.794-.679-4.315 1.552 1.212 2.376 1.891 3.2 2.715.873.922 1.406 1.26 1.794 1.26.679 0 1.551-1.163 1.551-1.987 0-.582-.145-.679-1.987-1.358C10.418 8.63 10.418 8.63 9.012 8a28.542 28.542 0 014.122-1.697c1.745-.582 2.036-.776 2.036-1.26 0-.922-1.067-2.23-1.794-2.23-.242 0-.582.193-.97.58-2.036 2.037-2.23 2.183-3.733 3.395z" fill-rule="evenodd"/>
</svg>
