<svg xmlns="http://www.w3.org/2000/svg" width="32" height="32" fill="none"><path fill="#fff" stroke="#000" stroke-width="2" d="M3.843 31 1 28.157V20.45L20.487 1h7.67L31 3.843V31H3.843Z"/>
  <path stroke="#000" stroke-width="2" d="m31 31-4-4"/>
  <path fill="#fff" stroke="#000" stroke-width="2" d="M1 1h26v26H1z"/>
  <path fill="#000" d="M22 19.021V5.646L10.01 7.284V19.88c-.583-.144-1.071-.152-1.78.083-1.52.504-2.493 1.77-2.167 2.828.326 1.058 1.823 1.506 3.344 1.003 1.52-.505 2.56-1.669 2.56-2.649v-10.82l8.05-1.162v8.646c-.48 0-.752 0-1.361.21-1.515.525-2.493 1.771-2.167 2.828.326 1.059 1.823 1.507 3.344 1.003 1.52-.506 2.167-1.848 2.167-2.829Z"/>
</svg>
