<svg width="14" height="14" xmlns="http://www.w3.org/2000/svg">
  <g fill="none" fill-rule="evenodd">
    <circle stroke="#000" stroke-width="1.5" cx="7" cy="7" r="6.25"/>
    <path d="M6.99 8.511a.457.457 0 0 1-.376-.167.682.682 0 0 1-.136-.444c0-.378.067-.693.201-.944.134-.252.332-.53.593-.834.195-.23.339-.42.43-.572a.989.989 0 0 0 .135-.517.607.607 0 0 0-.223-.494c-.148-.122-.35-.183-.603-.183-.232 0-.448.048-.647.144-.2.096-.465.244-.799.444-.21.119-.384.178-.522.178a.472.472 0 0 1-.385-.205.789.789 0 0 1-.158-.495c0-.133.024-.246.07-.339a.815.815 0 0 1 .223-.26 3.6 3.6 0 0 1 1.104-.606A3.81 3.81 0 0 1 7.152 3c.45 0 .853.081 1.212.244.359.163.638.387.837.673.2.285.299.605.299.96 0 .275-.053.525-.158.75-.105.227-.23.423-.375.59-.145.166-.34.372-.587.616a6.47 6.47 0 0 0-.62.65 1.266 1.266 0 0 0-.26.584.567.567 0 0 1-.18.327.491.491 0 0 1-.33.117zM7.01 11a.879.879 0 0 1-.662-.272.948.948 0 0 1-.261-.684c0-.274.087-.501.26-.683a.879.879 0 0 1 .664-.272c.26 0 .478.09.652.272.174.182.26.41.26.683a.948.948 0 0 1-.26.684.866.866 0 0 1-.652.272z" fill="#000" fill-rule="nonzero"/>
  </g>
</svg>
